<?xml version="1.0" encoding="iso-8859-1"?>
<!-- Uploaded to: SVG Repo, www.svgrepo.com, Generator: SVG Repo Mixer Tools -->
<svg height="800px" width="800px" version="1.1" id="Layer_1" xmlns="http://www.w3.org/2000/svg" xmlns:xlink="http://www.w3.org/1999/xlink" 
	 viewBox="0 0 470.137 470.137" xml:space="preserve">
<path style="fill:#00D8E0;" d="M225.684,5.61C101.241,5.61,0,108.544,0,235.068s101.241,229.458,225.684,229.458
	s225.684-102.934,225.684-229.458S350.126,5.61,225.684,5.61z"/>
<path style="fill:#B9F7F9;" d="M225.684,5.61C101.241,5.61,0,108.544,0,235.068s101.241,229.458,225.684,229.458V5.61z"/>
<path style="fill:#006C71;" d="M355.915,154.52l86.941,18.041c-14.489-51.968-46.586-96.478-89.282-126.443l-22.944,63.048
	c-4.343,11.933-1.743,25.29,6.759,34.724l0,0C342.276,149.313,348.766,153.036,355.915,154.52z"/>
<g>
	<path style="fill:#00A2A9;" d="M189.321,73.859l42.324-11.856c8.679-2.431,16.053-8.177,20.531-15.998L272.46,10.58
		c-15.096-3.248-30.742-4.969-46.776-4.969c-77.041,0-145.177,39.462-185.917,99.538l55.014,31.903
		c14.976,8.685,34.076,4.86,44.552-8.923l31.917-41.988C175.777,80.188,182.122,75.875,189.321,73.859z"/>
	<path style="fill:#00A2A9;" d="M73.698,266.834L6.396,180.788C2.226,198.198,0,216.373,0,235.069
		c0,79.678,40.158,149.988,100.968,191.141l23.101-103.328c3.703-16.562-5.252-33.345-21.071-39.491l-14.69-5.707
		C82.551,275.447,77.503,271.699,73.698,266.834z"/>
</g>
<path style="fill:#D83249;" d="M461.319,411.829l-64.383-64.383c-3.559-3.56-9.33-3.559-12.889,0
	c-3.511,3.51-26.782,25.452-30.341,29.011c-3.56,3.559-3.56,9.33,0,12.889l65.049,65.049c5.685,5.685,13.243,8.815,21.283,8.815
	c8.04,0,15.598-3.131,21.283-8.815c5.685-5.685,8.816-13.243,8.816-21.283C470.134,425.072,467.004,417.514,461.319,411.829z"/>
<path style="fill:#FF4F59;" d="M423.683,374.193l-26.747-26.747c-3.559-3.56-9.33-3.559-12.889,0
	c-3.511,3.51-26.782,25.452-30.341,29.011c-3.56,3.559-3.56,9.33,0,12.889l65.049,65.049c1.421,1.421,2.96,2.683,4.593,3.776
	L423.683,374.193z"/>
<path style="fill:#555559;" d="M300.182,411.835c-28.941,0-57.871-10.748-79.903-32.253c-21.472-20.958-33.296-48.852-33.296-78.544
	c0-29.694,11.824-57.588,33.296-78.547c44.059-43.004,115.747-43.004,159.806,0l0,0c21.472,20.959,33.296,48.854,33.296,78.547
	c0,29.692-11.825,57.586-33.296,78.544C358.058,401.081,329.115,411.835,300.182,411.835z"/>
<path style="fill:#AEADB3;" d="M300.182,411.835c-28.941,0-57.871-10.748-79.903-32.253c-21.472-20.958-33.296-48.852-33.296-78.544
	c0-29.694,11.824-57.588,33.296-78.547c22.029-21.502,50.965-32.253,79.902-32.253L300.182,411.835z"/>
<path style="fill:#00D8E0;" d="M356.499,246.066c31.104,30.36,31.104,79.582,0,109.942c-31.104,30.36-81.531,30.36-112.635,0
	s-31.104-79.582,0-109.942S325.396,215.706,356.499,246.066z"/>
<path style="fill:#B9F7F9;" d="M300.182,378.776c-20.383,0-40.766-7.59-56.319-22.77c-31.104-30.36-31.104-79.582,0-109.942
	c15.551-15.179,35.934-22.77,56.317-22.77L300.182,378.776z"/>
<path style="fill:#00A2A9;" d="M328.338,289.912c-4.121,0-8.245-1.547-11.427-4.653c-9.225-9.006-24.235-9.004-33.461,0
	c-6.466,6.31-16.823,6.185-23.136-0.28c-6.311-6.467-6.185-16.824,0.28-23.136c21.828-21.305,57.344-21.305,79.172,0
	c6.466,6.311,6.591,16.669,0.28,23.136C336.841,288.264,332.592,289.912,328.338,289.912z"/>
<path style="fill:#00D8E0;" d="M300.182,278.507c-6.059,0-12.118,2.251-16.731,6.754c-6.466,6.31-16.823,6.185-23.136-0.28
	c-6.311-6.467-6.185-16.824,0.28-23.136c10.914-10.652,25.249-15.979,39.585-15.979L300.182,278.507z"/>
</svg>